<?xml version="1.0" encoding="UTF-8" standalone="no"?>
<!-- Created with Inkscape (http://www.inkscape.org/) -->

<svg
   xmlns:dc="http://purl.org/dc/elements/1.1/"
   xmlns:cc="http://creativecommons.org/ns#"
   xmlns:rdf="http://www.w3.org/1999/02/22-rdf-syntax-ns#"
   xmlns:svg="http://www.w3.org/2000/svg"
   xmlns="http://www.w3.org/2000/svg"
   xmlns:xlink="http://www.w3.org/1999/xlink"
   xmlns:sodipodi="http://sodipodi.sourceforge.net/DTD/sodipodi-0.dtd"
   xmlns:inkscape="http://www.inkscape.org/namespaces/inkscape"
   width="744.09448819"
   height="1052.3622047"
   id="svg2"
   version="1.1"
   inkscape:version="0.47 r22583"
   sodipodi:docname="leaf.svg">
  <defs
     id="defs4">
    <linearGradient
       id="linearGradient3592">
      <stop
         style="stop-color:#1b3e00;stop-opacity:1;"
         offset="0"
         id="stop3594" />
      <stop
         style="stop-color:#54bf00;stop-opacity:1;"
         offset="1"
         id="stop3596" />
    </linearGradient>
    <inkscape:perspective
       sodipodi:type="inkscape:persp3d"
       inkscape:vp_x="0 : 526.18109 : 1"
       inkscape:vp_y="0 : 1000 : 0"
       inkscape:vp_z="744.09448 : 526.18109 : 1"
       inkscape:persp3d-origin="372.04724 : 350.78739 : 1"
       id="perspective10" />
    <linearGradient
       inkscape:collect="always"
       xlink:href="#linearGradient3592"
       id="linearGradient3600"
       x1="332.98373"
       y1="571.30219"
       x2="332.98373"
       y2="419.72"
       gradientUnits="userSpaceOnUse" />
    <filter
       id="filter3812"
       inkscape:label="Soft focus lens"
       inkscape:menu="Image effects"
       inkscape:menu-tooltip="Glowing image content without blurring it"
       height="1"
       y="0"
       width="1"
       x="0"
       color-interpolation-filters="sRGB">
      <feGaussianBlur
         id="feGaussianBlur3814"
         stdDeviation="5"
         result="result3" />
      <feComposite
         id="feComposite3816"
         in2="result3"
         operator="arithmetic"
         in="result3"
         k1="0.5"
         k3="0.5"
         result="result1" />
      <feBlend
         id="feBlend3818"
         in2="result1"
         result="result5"
         mode="screen"
         in="SourceGraphic" />
      <feBlend
         id="feBlend3820"
         in2="result5"
         mode="darken"
         in="result5"
         result="result6" />
      <feComposite
         id="feComposite3822"
         in2="SourceGraphic"
         operator="in" />
    </filter>
    <linearGradient
       inkscape:collect="always"
       xlink:href="#linearGradient3592"
       id="linearGradient3828"
       gradientUnits="userSpaceOnUse"
       gradientTransform="matrix(-0.55019103,-1.4963219,1.4963219,-0.55019103,-790.44233,513.59104)"
       x1="-311.04742"
       y1="552.36218"
       x2="-252.09821"
       y2="544.60742" />
    <linearGradient
       inkscape:collect="always"
       xlink:href="#linearGradient3592"
       id="linearGradient3830"
       gradientUnits="userSpaceOnUse"
       gradientTransform="matrix(4.0137233,0,0,4.0137233,-912.95713,-1835.7027)"
       x1="300.1189"
       y1="604.01837"
       x2="248.64383"
       y2="627.73633" />
    <linearGradient
       inkscape:collect="always"
       xlink:href="#linearGradient3592"
       id="linearGradient3880"
       gradientUnits="userSpaceOnUse"
       gradientTransform="matrix(-0.55019103,-1.4963219,1.4963219,-0.55019103,-790.44233,513.59104)"
       x1="-311.04742"
       y1="552.36218"
       x2="-252.09821"
       y2="544.60742" />
    <linearGradient
       inkscape:collect="always"
       xlink:href="#linearGradient3592"
       id="linearGradient3882"
       gradientUnits="userSpaceOnUse"
       gradientTransform="matrix(4.0137233,0,0,4.0137233,-912.95713,-1835.7027)"
       x1="300.1189"
       y1="604.01837"
       x2="248.64383"
       y2="627.73633" />
    <linearGradient
       inkscape:collect="always"
       xlink:href="#linearGradient3592"
       id="linearGradient3894"
       x1="387.94089"
       y1="638.46442"
       x2="387.94089"
       y2="594.40082"
       gradientUnits="userSpaceOnUse"
       gradientTransform="translate(68.806141,-63.168206)" />
    <linearGradient
       inkscape:collect="always"
       xlink:href="#linearGradient3592"
       id="linearGradient3907"
       gradientUnits="userSpaceOnUse"
       x1="332.98373"
       y1="571.30219"
       x2="332.98373"
       y2="419.72" />
    <linearGradient
       inkscape:collect="always"
       xlink:href="#linearGradient3592"
       id="linearGradient3909"
       gradientUnits="userSpaceOnUse"
       gradientTransform="matrix(-0.55019103,-1.4963219,1.4963219,-0.55019103,-790.44233,513.59104)"
       x1="-311.04742"
       y1="552.36218"
       x2="-252.09821"
       y2="544.60742" />
    <linearGradient
       inkscape:collect="always"
       xlink:href="#linearGradient3592"
       id="linearGradient3911"
       gradientUnits="userSpaceOnUse"
       gradientTransform="matrix(4.0137233,0,0,4.0137233,-912.95713,-1835.7027)"
       x1="300.1189"
       y1="604.01837"
       x2="248.64383"
       y2="627.73633" />
    <linearGradient
       inkscape:collect="always"
       xlink:href="#linearGradient3592"
       id="linearGradient3913"
       gradientUnits="userSpaceOnUse"
       gradientTransform="matrix(-0.55019103,-1.4963219,1.4963219,-0.55019103,-790.44233,513.59104)"
       x1="-311.04742"
       y1="552.36218"
       x2="-252.09821"
       y2="544.60742" />
    <linearGradient
       inkscape:collect="always"
       xlink:href="#linearGradient3592"
       id="linearGradient3915"
       gradientUnits="userSpaceOnUse"
       gradientTransform="matrix(4.0137233,0,0,4.0137233,-912.95713,-1835.7027)"
       x1="300.1189"
       y1="604.01837"
       x2="248.64383"
       y2="627.73633" />
  </defs>
  <sodipodi:namedview
     id="base"
     pagecolor="#ffffff"
     bordercolor="#666666"
     borderopacity="1.0"
     inkscape:pageopacity="0.0"
     inkscape:pageshadow="2"
     inkscape:zoom="1"
     inkscape:cx="505.72165"
     inkscape:cy="522.6417"
     inkscape:document-units="px"
     inkscape:current-layer="layer1"
     showgrid="false"
     inkscape:window-width="1280"
     inkscape:window-height="752"
     inkscape:window-x="0"
     inkscape:window-y="0"
     inkscape:window-maximized="0" />
  <metadata
     id="metadata7">
    <rdf:RDF>
      <cc:Work
         rdf:about="">
        <dc:format>image/svg+xml</dc:format>
        <dc:type
           rdf:resource="http://purl.org/dc/dcmitype/StillImage" />
        <dc:title></dc:title>
      </cc:Work>
    </rdf:RDF>
  </metadata>
  <g
     inkscape:label="Layer 1"
     inkscape:groupmode="layer"
     id="layer1">
    <g
       id="g3896"
       transform="translate(19.094771,0)">
      <text
         inkscape:export-ydpi="116.93"
         inkscape:export-xdpi="116.93"
         inkscape:export-filename="/Users/peter/Desktop/leaf.png"
         id="text2816"
         y="530.31201"
         x="195.41985"
         style="font-size:40px;font-style:normal;font-weight:normal;fill:url(#linearGradient3907);fill-opacity:1;stroke:none;font-family:Bitstream Vera Sans"
         xml:space="preserve"><tspan
           style="font-size:144px;font-style:normal;font-variant:normal;font-weight:bold;font-stretch:normal;fill:url(#linearGradient3907);fill-opacity:1;font-family:ChunkFive;-inkscape-font-specification:ChunkFive Bold"
           y="530.31201"
           x="195.41985"
           id="tspan2818"
           sodipodi:role="line">Leaf</tspan></text>
      <g
         inkscape:export-ydpi="116.93"
         inkscape:export-xdpi="116.93"
         inkscape:export-filename="/Users/peter/Desktop/leaf.png"
         style="filter:url(#filter3812)"
         transform="matrix(0.52217354,-0.15470554,0.16315576,0.49512897,183.18523,134.18979)"
         id="g3706">
        <g
           transform="translate(-200.51804,5.6931813)"
           id="g3824">
          <path
             sodipodi:nodetypes="czcsz"
             id="path3684"
             d="m 284.72431,583.74687 c 4.07766,8.68389 -7.17947,36.50803 -41.9105,54.30664 -34.73099,17.79858 -74.91566,2.75518 -136.29914,32.9011 22.25393,-41.16327 59.45195,-84.97871 107.67375,-99.14607 37.22588,-10.9368 66.45822,3.25444 70.53589,11.93833 z"
             style="fill:url(#linearGradient3909);fill-opacity:1;stroke:none"
             inkscape:export-filename="/Users/peter/Desktop/leaf.png"
             inkscape:export-xdpi="830.17096"
             inkscape:export-ydpi="830.17096" />
          <path
             sodipodi:nodetypes="cczcczcczccczcczcczcc"
             id="path3688"
             d="m 305.85267,583.05057 c -9.19769,7.00835 -17.76136,-3.32653 -71.99861,23.38977 3.60076,5.93867 16.71189,21.55924 15.55578,22.70993 -1.15611,1.15066 -17.78878,-21.73636 -17.78878,-21.73636 l -32.02955,12.53 c 0,0 15.36618,23.97706 14.32036,24.32325 -0.89996,0.29782 -17.12515,-23.01862 -17.12515,-23.01862 l -35.79691,15.14879 c 0,0 7.32014,13.83121 6.132,14.37764 -1.18814,0.54643 -8.85969,-13.19323 -8.85969,-13.19323 0,0 -22.51809,3.98058 -48.63264,30.61873 20.62573,-25.58488 47.69459,-34.01017 47.69459,-34.01017 0,0 -0.36485,-26.24445 0.53403,-26.21398 0.89879,0.0321 2.25583,25.15512 2.25583,25.15512 l 35.31503,-14.64868 c 0,0 -3.92627,-34.06383 -2.86741,-34.30421 1.01214,-0.22959 5.99711,33.12626 5.99711,33.12626 l 32.01538,-13.06387 c 0,0 -3.19087,-31.93783 -1.97138,-31.95425 1.21945,-0.0161 4.622,30.83154 4.622,30.83154 0,0 55.815,-31.30447 72.62801,-20.06766 z"
             style="fill:url(#linearGradient3911);fill-opacity:1;stroke:none"
             inkscape:export-filename="/Users/peter/Desktop/leaf.png"
             inkscape:export-xdpi="830.17096"
             inkscape:export-ydpi="830.17096" />
        </g>
        <g
           id="g3874"
           transform="matrix(-0.50523601,-0.34988577,-0.34988579,0.50523601,458.21985,399.21952)">
          <path
             inkscape:export-ydpi="830.17096"
             inkscape:export-xdpi="830.17096"
             inkscape:export-filename="/Users/peter/Desktop/leaf.png"
             style="fill:url(#linearGradient3913);fill-opacity:1;stroke:none"
             d="m 284.72431,583.74687 c 4.07766,8.68389 -7.17947,36.50803 -41.9105,54.30664 -34.73099,17.79858 -74.91566,2.75518 -136.29914,32.9011 22.25393,-41.16327 59.45195,-84.97871 107.67375,-99.14607 37.22588,-10.9368 66.45822,3.25444 70.53589,11.93833 z"
             id="path3876"
             sodipodi:nodetypes="czcsz" />
          <path
             inkscape:export-ydpi="830.17096"
             inkscape:export-xdpi="830.17096"
             inkscape:export-filename="/Users/peter/Desktop/leaf.png"
             style="fill:url(#linearGradient3915);fill-opacity:1;stroke:none"
             d="m 305.85267,583.05057 c -9.19769,7.00835 -17.76136,-3.32653 -71.99861,23.38977 3.60076,5.93867 16.71189,21.55924 15.55578,22.70993 -1.15611,1.15066 -17.78878,-21.73636 -17.78878,-21.73636 l -32.02955,12.53 c 0,0 15.36618,23.97706 14.32036,24.32325 -0.89996,0.29782 -17.12515,-23.01862 -17.12515,-23.01862 l -35.79691,15.14879 c 0,0 7.32014,13.83121 6.132,14.37764 -1.18814,0.54643 -8.85969,-13.19323 -8.85969,-13.19323 0,0 -22.51809,3.98058 -48.63264,30.61873 20.62573,-25.58488 47.69459,-34.01017 47.69459,-34.01017 0,0 -0.36485,-26.24445 0.53403,-26.21398 0.89879,0.0321 2.25583,25.15512 2.25583,25.15512 l 35.31503,-14.64868 c 0,0 -3.92627,-34.06383 -2.86741,-34.30421 1.01214,-0.22959 5.99711,33.12626 5.99711,33.12626 l 32.01538,-13.06387 c 0,0 -3.19087,-31.93783 -1.97138,-31.95425 1.21945,-0.0161 4.622,30.83154 4.622,30.83154 0,0 55.815,-31.30447 72.62801,-20.06766 z"
             id="path3878"
             sodipodi:nodetypes="cczcczcczccczcczcczcc" />
        </g>
      </g>
    </g>
    <text
       xml:space="preserve"
       style="font-size:40px;font-style:normal;font-weight:normal;fill:url(#linearGradient3894);fill-opacity:1;stroke:none;font-family:Bitstream Vera Sans"
       x="215.44661"
       y="564.31262"
       id="text3884"><tspan
         sodipodi:role="line"
         id="tspan3886"
         x="215.44661"
         y="564.31262"
         style="font-size:27.7;font-style:normal;font-variant:normal;font-weight:bold;font-stretch:normal;fill:url(#linearGradient3894);fill-opacity:1;font-family:Graublau Web;-inkscape-font-specification:Graublau Web Bold">Leafing through the pages</tspan></text>
    <text
       xml:space="preserve"
       style="font-size:40px;font-style:normal;font-weight:normal;fill:#000000;fill-opacity:1;stroke:none;font-family:Bitstream Vera Sans"
       x="639"
       y="515.36218"
       id="text3917"><tspan
         sodipodi:role="line"
         id="tspan3919"
         x="639"
         y="515.36218" /></text>
  </g>
</svg>
